<svg width="27" height="30" viewBox="0 0 27 30" fill="none" xmlns="http://www.w3.org/2000/svg">
<path d="M9.1875 13.5412V6.32796C9.1875 3.9377 11.1182 2 13.5 2C15.8818 2 17.8125 3.9377 17.8125 6.32796V13.494M11.2 27.9677H15.8C19.0203 27.9677 20.6304 27.9677 21.8605 27.3387C22.9424 26.7855 23.822 25.9027 24.3732 24.817C25 23.5825 25 21.9666 25 18.7348V15.2724C25 13.6565 25 12.8485 24.6866 12.2313C24.4111 11.6884 23.9712 11.247 23.4303 10.9704C22.8153 10.6559 22.0101 10.6559 20.4 10.6559H6.6C4.98986 10.6559 4.18477 10.6559 3.56978 10.9704C3.0288 11.247 2.58899 11.6884 2.31336 12.2313C2 12.8485 2 13.6565 2 15.2724V18.7348C2 21.9666 2 23.5825 2.62671 24.817C3.17799 25.9027 4.05762 26.7855 5.13956 27.3387C6.36954 27.9677 7.9797 27.9677 11.2 27.9677Z" stroke="black" stroke-width="3" stroke-linecap="round" stroke-linejoin="round"/>
</svg>
