<svg width="28" height="29" viewBox="0 0 28 29" fill="none" xmlns="http://www.w3.org/2000/svg">
<path d="M1 4.75C1 17.5906 11.0239 28 23.3889 28C23.9467 28 24.4998 27.9788 25.0475 27.9371C25.676 27.8893 25.9902 27.8655 26.2763 27.6945C26.5132 27.5529 26.7378 27.3018 26.8566 27.046C27 26.7373 27 26.3771 27 25.657V21.4311C27 20.8254 27 20.5225 26.9039 20.263C26.8193 20.0337 26.6815 19.8295 26.503 19.6684C26.3009 19.486 26.0267 19.3825 25.4787 19.1755L20.8467 17.4264C20.2089 17.1856 19.89 17.0651 19.5875 17.0855C19.3208 17.1035 19.0641 17.1982 18.846 17.3587C18.5987 17.5406 18.4242 17.8428 18.0751 18.4471L16.8889 20.5C13.0613 18.6999 9.9583 15.4734 8.22222 11.5L10.1991 10.2682C10.781 9.90569 11.0719 9.72442 11.2472 9.46759C11.4017 9.24112 11.4929 8.97455 11.5102 8.69755C11.5299 8.3834 11.4139 8.05229 11.182 7.39007L9.49765 2.57981C9.29833 2.01064 9.19868 1.72604 9.02305 1.51615C8.8679 1.33074 8.67129 1.18773 8.45047 1.09968C8.2005 1 7.90889 1 7.32568 1H3.25624C2.56272 1 2.21595 1 1.91864 1.14888C1.67239 1.27219 1.43065 1.50551 1.29423 1.75154C1.12954 2.0486 1.10653 2.37493 1.06051 3.02759C1.02041 3.59629 1 4.17067 1 4.75Z" stroke="black" stroke-width="2" stroke-linecap="round" stroke-linejoin="round"/>
</svg>
